<svg xmlns="http://www.w3.org/2000/svg" viewBox="0 0 32 32">
  <circle cx="16" cy="16" r="15" fill="#0D0D14" stroke="#7B2FBE" stroke-width="1.5"/>
  <g transform="translate(16,16)">
    <path d="M0,-8 Q4,-7 6,-3 Q5,1 0,2 Q-1,-2 0,-8Z" fill="#7B2FBE" opacity="0.9"/>
    <path d="M0,-8 Q4,-7 6,-3 Q5,1 0,2 Q-1,-2 0,-8Z" fill="#7B2FBE" opacity="0.9" transform="rotate(60)"/>
    <path d="M0,-8 Q4,-7 6,-3 Q5,1 0,2 Q-1,-2 0,-8Z" fill="#7B2FBE" opacity="0.9" transform="rotate(120)"/>
    <path d="M0,-8 Q4,-7 6,-3 Q5,1 0,2 Q-1,-2 0,-8Z" fill="#7B2FBE" opacity="0.9" transform="rotate(180)"/>
    <path d="M0,-8 Q4,-7 6,-3 Q5,1 0,2 Q-1,-2 0,-8Z" fill="#7B2FBE" opacity="0.9" transform="rotate(240)"/>
    <path d="M0,-8 Q4,-7 6,-3 Q5,1 0,2 Q-1,-2 0,-8Z" fill="#7B2FBE" opacity="0.9" transform="rotate(300)"/>
  </g>
</svg>
